<svg xmlns="http://www.w3.org/2000/svg" xmlns:xlink="http://www.w3.org/1999/xlink" width="171" zoomAndPan="magnify" viewBox="0 0 128.25 30.000001" height="40" preserveAspectRatio="xMidYMid meet" version="1.0"><defs><g/><clipPath id="734969c6ac"><path d="M 6.640625 5 L 25 5 L 25 24 L 6.640625 24 Z M 6.640625 5 " clip-rule="nonzero"/></clipPath><clipPath id="5d8efc3645"><path d="M 23.066406 14.660156 C 23.066406 18.804688 19.75 22.164062 15.65625 22.164062 C 11.5625 22.164062 8.246094 18.804688 8.246094 14.660156 C 8.246094 10.515625 11.5625 7.15625 15.65625 7.15625 C 19.75 7.15625 23.066406 10.515625 23.066406 14.660156 Z M 24.316406 14.660156 C 24.316406 19.503906 20.4375 23.429688 15.65625 23.429688 C 10.875 23.429688 6.996094 19.503906 6.996094 14.660156 C 6.996094 9.816406 10.875 5.890625 15.65625 5.890625 C 20.4375 5.890625 24.316406 9.816406 24.316406 14.660156 Z M 20.433594 10.726562 C 20.433594 11.230469 20.03125 11.636719 19.539062 11.636719 C 19.042969 11.636719 18.640625 11.230469 18.640625 10.726562 C 18.640625 10.226562 19.042969 9.820312 19.539062 9.820312 C 20.03125 9.820312 20.433594 10.226562 20.433594 10.726562 Z M 13.050781 15.367188 C 13.4375 16.824219 14.914062 17.6875 16.355469 17.296875 C 17.792969 16.90625 18.648438 15.410156 18.261719 13.953125 C 17.875 12.496094 16.398438 11.632812 14.957031 12.019531 C 13.519531 12.410156 12.664062 13.910156 13.050781 15.367188 Z M 11.84375 15.695312 C 12.40625 17.828125 14.570312 19.09375 16.679688 18.519531 C 18.785156 17.949219 20.035156 15.757812 19.46875 13.625 C 18.90625 11.492188 16.742188 10.226562 14.632812 10.796875 C 12.527344 11.371094 11.277344 13.5625 11.84375 15.695312 Z M 11.84375 15.695312 " clip-rule="evenodd"/></clipPath><linearGradient x1="15" gradientTransform="matrix(0.577343, 0, 0, 0.584678, 6.996051, 4.13521)" y1="3.000003" x2="15" gradientUnits="userSpaceOnUse" y2="33.000001" id="e44133323f"><stop stop-opacity="1" stop-color="rgb(52.89917%, 49.398804%, 100%)" offset="0"/><stop stop-opacity="1" stop-color="rgb(52.796936%, 49.28894%, 100%)" offset="0.0078125"/><stop stop-opacity="1" stop-color="rgb(52.590942%, 49.07074%, 100%)" offset="0.015625"/><stop stop-opacity="1" stop-color="rgb(52.386475%, 48.852539%, 100%)" offset="0.0234375"/><stop stop-opacity="1" stop-color="rgb(52.180481%, 48.632812%, 100%)" offset="0.03125"/><stop stop-opacity="1" stop-color="rgb(51.976013%, 48.414612%, 100%)" offset="0.0390625"/><stop stop-opacity="1" stop-color="rgb(51.771545%, 48.196411%, 100%)" offset="0.046875"/><stop stop-opacity="1" stop-color="rgb(51.565552%, 47.97821%, 100%)" offset="0.0546875"/><stop stop-opacity="1" stop-color="rgb(51.361084%, 47.758484%, 100%)" offset="0.0625"/><stop stop-opacity="1" stop-color="rgb(51.156616%, 47.540283%, 100%)" offset="0.0703125"/><stop stop-opacity="1" stop-color="rgb(50.950623%, 47.322083%, 100%)" offset="0.078125"/><stop stop-opacity="1" stop-color="rgb(50.746155%, 47.103882%, 100%)" offset="0.0859375"/><stop stop-opacity="1" stop-color="rgb(50.540161%, 46.884155%, 100%)" offset="0.09375"/><stop stop-opacity="1" stop-color="rgb(50.335693%, 46.665955%, 100%)" offset="0.101562"/><stop stop-opacity="1" stop-color="rgb(50.131226%, 46.447754%, 100%)" offset="0.109375"/><stop stop-opacity="1" stop-color="rgb(49.925232%, 46.228027%, 100%)" offset="0.117188"/><stop stop-opacity="1" stop-color="rgb(49.720764%, 46.009827%, 100%)" offset="0.125"/><stop stop-opacity="1" stop-color="rgb(49.514771%, 45.791626%, 100%)" offset="0.132812"/><stop stop-opacity="1" stop-color="rgb(49.310303%, 45.573425%, 100%)" offset="0.140625"/><stop stop-opacity="1" stop-color="rgb(49.105835%, 45.353699%, 100%)" offset="0.148438"/><stop stop-opacity="1" stop-color="rgb(48.899841%, 45.135498%, 100%)" offset="0.15625"/><stop stop-opacity="1" stop-color="rgb(48.695374%, 44.917297%, 100%)" offset="0.164062"/><stop stop-opacity="1" stop-color="rgb(48.490906%, 44.699097%, 100%)" offset="0.171875"/><stop stop-opacity="1" stop-color="rgb(48.284912%, 44.47937%, 100%)" offset="0.179688"/><stop stop-opacity="1" stop-color="rgb(48.080444%, 44.261169%, 100%)" offset="0.1875"/><stop stop-opacity="1" stop-color="rgb(47.874451%, 44.042969%, 100%)" offset="0.195312"/><stop stop-opacity="1" stop-color="rgb(47.669983%, 43.824768%, 100%)" offset="0.203125"/><stop stop-opacity="1" stop-color="rgb(47.465515%, 43.605042%, 100%)" offset="0.210938"/><stop stop-opacity="1" stop-color="rgb(47.259521%, 43.386841%, 100%)" offset="0.21875"/><stop stop-opacity="1" stop-color="rgb(47.055054%, 43.16864%, 100%)" offset="0.226562"/><stop stop-opacity="1" stop-color="rgb(46.84906%, 42.948914%, 100%)" offset="0.234375"/><stop stop-opacity="1" stop-color="rgb(46.644592%, 42.730713%, 100%)" offset="0.242188"/><stop stop-opacity="1" stop-color="rgb(46.440125%, 42.512512%, 100%)" offset="0.25"/><stop stop-opacity="1" stop-color="rgb(46.234131%, 42.294312%, 100%)" offset="0.257812"/><stop stop-opacity="1" stop-color="rgb(46.029663%, 42.074585%, 100%)" offset="0.265625"/><stop stop-opacity="1" stop-color="rgb(45.825195%, 41.856384%, 100%)" offset="0.273438"/><stop stop-opacity="1" stop-color="rgb(45.619202%, 41.638184%, 100%)" offset="0.28125"/><stop stop-opacity="1" stop-color="rgb(45.414734%, 41.419983%, 100%)" offset="0.289062"/><stop stop-opacity="1" stop-color="rgb(45.20874%, 41.200256%, 100%)" offset="0.296875"/><stop stop-opacity="1" stop-color="rgb(45.004272%, 40.982056%, 100%)" offset="0.304688"/><stop stop-opacity="1" stop-color="rgb(44.799805%, 40.763855%, 100%)" offset="0.3125"/><stop stop-opacity="1" stop-color="rgb(44.593811%, 40.544128%, 100%)" offset="0.320312"/><stop stop-opacity="1" stop-color="rgb(44.389343%, 40.325928%, 100%)" offset="0.328125"/><stop stop-opacity="1" stop-color="rgb(44.18335%, 40.107727%, 100%)" offset="0.335938"/><stop stop-opacity="1" stop-color="rgb(43.978882%, 39.889526%, 100%)" offset="0.34375"/><stop stop-opacity="1" stop-color="rgb(43.774414%, 39.6698%, 100%)" offset="0.351562"/><stop stop-opacity="1" stop-color="rgb(43.56842%, 39.451599%, 100%)" offset="0.359375"/><stop stop-opacity="1" stop-color="rgb(43.363953%, 39.233398%, 100%)" offset="0.367188"/><stop stop-opacity="1" stop-color="rgb(43.159485%, 39.015198%, 100%)" offset="0.375"/><stop stop-opacity="1" stop-color="rgb(42.953491%, 38.795471%, 100%)" offset="0.382812"/><stop stop-opacity="1" stop-color="rgb(42.749023%, 38.577271%, 100%)" offset="0.390625"/><stop stop-opacity="1" stop-color="rgb(42.54303%, 38.35907%, 100%)" offset="0.398438"/><stop stop-opacity="1" stop-color="rgb(42.338562%, 38.139343%, 100%)" offset="0.40625"/><stop stop-opacity="1" stop-color="rgb(42.134094%, 37.921143%, 100%)" offset="0.414062"/><stop stop-opacity="1" stop-color="rgb(41.928101%, 37.702942%, 100%)" offset="0.421875"/><stop stop-opacity="1" stop-color="rgb(41.723633%, 37.484741%, 100%)" offset="0.429688"/><stop stop-opacity="1" stop-color="rgb(41.517639%, 37.265015%, 100%)" offset="0.4375"/><stop stop-opacity="1" stop-color="rgb(41.313171%, 37.046814%, 100%)" offset="0.445312"/><stop stop-opacity="1" stop-color="rgb(41.108704%, 36.828613%, 100%)" offset="0.453125"/><stop stop-opacity="1" stop-color="rgb(40.90271%, 36.610413%, 100%)" offset="0.460938"/><stop stop-opacity="1" stop-color="rgb(40.644836%, 36.329651%, 100%)" offset="0.46875"/><stop stop-opacity="1" stop-color="rgb(40.332031%, 35.98938%, 100%)" offset="0.476562"/><stop stop-opacity="1" stop-color="rgb(40.0177%, 35.646057%, 100%)" offset="0.484375"/><stop stop-opacity="1" stop-color="rgb(39.704895%, 35.30426%, 100%)" offset="0.492188"/><stop stop-opacity="1" stop-color="rgb(39.39209%, 34.962463%, 100%)" offset="0.5"/><stop stop-opacity="1" stop-color="rgb(39.079285%, 34.620667%, 100%)" offset="0.507813"/><stop stop-opacity="1" stop-color="rgb(38.766479%, 34.27887%, 100%)" offset="0.515625"/><stop stop-opacity="1" stop-color="rgb(38.453674%, 33.937073%, 100%)" offset="0.523438"/><stop stop-opacity="1" stop-color="rgb(38.139343%, 33.59375%, 100%)" offset="0.53125"/><stop stop-opacity="1" stop-color="rgb(37.826538%, 33.251953%, 100%)" offset="0.539062"/><stop stop-opacity="1" stop-color="rgb(37.513733%, 32.910156%, 100%)" offset="0.546875"/><stop stop-opacity="1" stop-color="rgb(37.200928%, 32.568359%, 100%)" offset="0.554688"/><stop stop-opacity="1" stop-color="rgb(36.888123%, 32.226562%, 100%)" offset="0.5625"/><stop stop-opacity="1" stop-color="rgb(36.573792%, 31.88324%, 100%)" offset="0.570312"/><stop stop-opacity="1" stop-color="rgb(36.260986%, 31.541443%, 100%)" offset="0.578125"/><stop stop-opacity="1" stop-color="rgb(35.948181%, 31.199646%, 100%)" offset="0.585938"/><stop stop-opacity="1" stop-color="rgb(35.635376%, 30.857849%, 100%)" offset="0.59375"/><stop stop-opacity="1" stop-color="rgb(35.322571%, 30.516052%, 100%)" offset="0.601563"/><stop stop-opacity="1" stop-color="rgb(35.009766%, 30.174255%, 100%)" offset="0.609375"/><stop stop-opacity="1" stop-color="rgb(34.695435%, 29.830933%, 100%)" offset="0.617188"/><stop stop-opacity="1" stop-color="rgb(34.382629%, 29.489136%, 100%)" offset="0.625"/><stop stop-opacity="1" stop-color="rgb(34.069824%, 29.147339%, 100%)" offset="0.632813"/><stop stop-opacity="1" stop-color="rgb(33.757019%, 28.805542%, 100%)" offset="0.640625"/><stop stop-opacity="1" stop-color="rgb(33.444214%, 28.463745%, 100%)" offset="0.648437"/><stop stop-opacity="1" stop-color="rgb(33.131409%, 28.120422%, 100%)" offset="0.65625"/><stop stop-opacity="1" stop-color="rgb(32.817078%, 27.778625%, 100%)" offset="0.664062"/><stop stop-opacity="1" stop-color="rgb(32.504272%, 27.436829%, 100%)" offset="0.671875"/><stop stop-opacity="1" stop-color="rgb(32.191467%, 27.095032%, 100%)" offset="0.679688"/><stop stop-opacity="1" stop-color="rgb(31.878662%, 26.753235%, 100%)" offset="0.6875"/><stop stop-opacity="1" stop-color="rgb(31.565857%, 26.411438%, 100%)" offset="0.695312"/><stop stop-opacity="1" stop-color="rgb(31.251526%, 26.068115%, 100%)" offset="0.703125"/><stop stop-opacity="1" stop-color="rgb(30.938721%, 25.726318%, 100%)" offset="0.710938"/><stop stop-opacity="1" stop-color="rgb(30.625916%, 25.384521%, 100%)" offset="0.71875"/><stop stop-opacity="1" stop-color="rgb(30.31311%, 25.042725%, 100%)" offset="0.726563"/><stop stop-opacity="1" stop-color="rgb(30.000305%, 24.700928%, 100%)" offset="0.734375"/><stop stop-opacity="1" stop-color="rgb(29.6875%, 24.359131%, 100%)" offset="0.742188"/><stop stop-opacity="1" stop-color="rgb(29.373169%, 24.015808%, 100%)" offset="0.75"/><stop stop-opacity="1" stop-color="rgb(29.060364%, 23.674011%, 100%)" offset="0.757813"/><stop stop-opacity="1" stop-color="rgb(28.747559%, 23.332214%, 100%)" offset="0.765625"/><stop stop-opacity="1" stop-color="rgb(28.434753%, 22.990417%, 100%)" offset="0.773437"/><stop stop-opacity="1" stop-color="rgb(28.121948%, 22.648621%, 100%)" offset="0.78125"/><stop stop-opacity="1" stop-color="rgb(27.807617%, 22.305298%, 100%)" offset="0.789062"/><stop stop-opacity="1" stop-color="rgb(27.494812%, 21.963501%, 100%)" offset="0.796875"/><stop stop-opacity="1" stop-color="rgb(27.182007%, 21.621704%, 100%)" offset="0.804688"/><stop stop-opacity="1" stop-color="rgb(26.869202%, 21.279907%, 100%)" offset="0.8125"/><stop stop-opacity="1" stop-color="rgb(26.556396%, 20.93811%, 100%)" offset="0.820312"/><stop stop-opacity="1" stop-color="rgb(26.243591%, 20.596313%, 100%)" offset="0.828125"/><stop stop-opacity="1" stop-color="rgb(25.92926%, 20.252991%, 100%)" offset="0.835938"/><stop stop-opacity="1" stop-color="rgb(25.616455%, 19.911194%, 100%)" offset="0.84375"/><stop stop-opacity="1" stop-color="rgb(25.30365%, 19.569397%, 100%)" offset="0.851563"/><stop stop-opacity="1" stop-color="rgb(24.990845%, 19.2276%, 100%)" offset="0.859375"/><stop stop-opacity="1" stop-color="rgb(24.67804%, 18.885803%, 100%)" offset="0.867188"/><stop stop-opacity="1" stop-color="rgb(24.363708%, 18.54248%, 100%)" offset="0.875"/><stop stop-opacity="1" stop-color="rgb(24.050903%, 18.200684%, 100%)" offset="0.882812"/><stop stop-opacity="1" stop-color="rgb(23.738098%, 17.858887%, 100%)" offset="0.890625"/><stop stop-opacity="1" stop-color="rgb(23.425293%, 17.51709%, 100%)" offset="0.898437"/><stop stop-opacity="1" stop-color="rgb(23.112488%, 17.175293%, 100%)" offset="0.90625"/><stop stop-opacity="1" stop-color="rgb(22.799683%, 16.833496%, 100%)" offset="0.914062"/><stop stop-opacity="1" stop-color="rgb(22.485352%, 16.490173%, 100%)" offset="0.921875"/><stop stop-opacity="1" stop-color="rgb(22.172546%, 16.148376%, 100%)" offset="0.929688"/><stop stop-opacity="1" stop-color="rgb(21.859741%, 15.80658%, 100%)" offset="0.9375"/><stop stop-opacity="1" stop-color="rgb(21.546936%, 15.464783%, 100%)" offset="0.945312"/><stop stop-opacity="1" stop-color="rgb(21.234131%, 15.122986%, 100%)" offset="0.953125"/><stop stop-opacity="1" stop-color="rgb(20.9198%, 14.781189%, 100%)" offset="0.960938"/><stop stop-opacity="1" stop-color="rgb(20.606995%, 14.437866%, 100%)" offset="0.96875"/><stop stop-opacity="1" stop-color="rgb(20.294189%, 14.096069%, 100%)" offset="0.976563"/><stop stop-opacity="1" stop-color="rgb(19.981384%, 13.754272%, 100%)" offset="0.984375"/><stop stop-opacity="1" stop-color="rgb(19.668579%, 13.412476%, 100%)" offset="0.992188"/><stop stop-opacity="1" stop-color="rgb(19.355774%, 13.070679%, 100%)" offset="1"/></linearGradient></defs><g clip-path="url(#734969c6ac)"><g clip-path="url(#5d8efc3645)"><path fill="url(#e44133323f)" d="M 6.996094 5.890625 L 6.996094 23.429688 L 24.316406 23.429688 L 24.316406 5.890625 Z M 6.996094 5.890625 " fill-rule="nonzero"/></g></g><g fill="#ffffff" fill-opacity="1"><g transform="translate(29.42602, 17.325489)"><g><path d="M 8.851562 -7.109375 C 8.851562 -9.460938 7.082031 -10.273438 4.832031 -10.273438 L 1.058594 -10.273438 L 1.058594 0 L 3.539062 0 L 3.539062 -3.875 L 4.773438 -3.875 C 6.921875 -3.875 8.851562 -4.730469 8.851562 -7.109375 Z M 6.371094 -7.09375 C 6.371094 -6.121094 5.511719 -5.847656 4.585938 -5.847656 L 3.539062 -5.847656 L 3.539062 -8.269531 L 4.628906 -8.269531 C 5.511719 -8.269531 6.371094 -8.082031 6.371094 -7.09375 Z M 6.371094 -7.09375 "/></g></g></g><g fill="#ffffff" fill-opacity="1"><g transform="translate(38.709135, 17.325489)"><g><path d="M 8.082031 0 L 8.082031 -4.46875 C 8.082031 -5.917969 7.398438 -7.429688 5.441406 -7.429688 C 4.441406 -7.429688 3.683594 -6.890625 3.367188 -6.3125 L 3.335938 -6.3125 L 3.335938 -10.96875 L 0.957031 -10.96875 L 0.957031 0 L 3.335938 0 L 3.335938 -3.902344 C 3.335938 -4.757812 3.800781 -5.441406 4.628906 -5.441406 C 5.484375 -5.441406 5.6875 -4.730469 5.6875 -3.917969 L 5.6875 0 Z M 8.082031 0 "/></g></g></g><g fill="#ffffff" fill-opacity="1"><g transform="translate(47.65864, 17.325489)"><g><path d="M 8.589844 -3.640625 C 8.589844 -6.007812 6.761719 -7.457031 4.570312 -7.457031 C 2.394531 -7.457031 0.566406 -6.007812 0.566406 -3.640625 C 0.566406 -1.277344 2.394531 0.230469 4.570312 0.230469 C 6.761719 0.230469 8.589844 -1.277344 8.589844 -3.640625 Z M 6.296875 -3.640625 C 6.296875 -2.714844 5.703125 -1.769531 4.585938 -1.769531 C 3.46875 -1.769531 2.871094 -2.714844 2.871094 -3.640625 C 2.871094 -4.570312 3.453125 -5.484375 4.570312 -5.484375 C 5.6875 -5.484375 6.296875 -4.570312 6.296875 -3.640625 Z M 6.296875 -3.640625 "/></g></g></g><g fill="#ffffff" fill-opacity="1"><g transform="translate(56.825712, 17.325489)"><g><path d="M 5.207031 -5.441406 L 5.207031 -7.226562 L 3.511719 -7.226562 L 3.511719 -9.125 L 1.175781 -9.125 L 1.175781 -7.226562 L 0.0273438 -7.226562 L 0.0273438 -5.441406 L 1.191406 -5.441406 L 1.191406 -2.394531 C 1.191406 -0.855469 1.828125 0.175781 3.757812 0.175781 C 4.265625 0.175781 4.816406 0.0742188 5.136719 -0.0429688 L 5.105469 -1.785156 C 4.933594 -1.710938 4.644531 -1.667969 4.410156 -1.667969 C 3.730469 -1.667969 3.511719 -2.015625 3.511719 -2.683594 L 3.511719 -5.441406 Z M 5.207031 -5.441406 "/></g></g></g><g fill="#ffffff" fill-opacity="1"><g transform="translate(62.221527, 17.325489)"><g><path d="M 8.589844 -3.640625 C 8.589844 -6.007812 6.761719 -7.457031 4.570312 -7.457031 C 2.394531 -7.457031 0.566406 -6.007812 0.566406 -3.640625 C 0.566406 -1.277344 2.394531 0.230469 4.570312 0.230469 C 6.761719 0.230469 8.589844 -1.277344 8.589844 -3.640625 Z M 6.296875 -3.640625 C 6.296875 -2.714844 5.703125 -1.769531 4.585938 -1.769531 C 3.46875 -1.769531 2.871094 -2.714844 2.871094 -3.640625 C 2.871094 -4.570312 3.453125 -5.484375 4.570312 -5.484375 C 5.6875 -5.484375 6.296875 -4.570312 6.296875 -3.640625 Z M 6.296875 -3.640625 "/></g></g></g><g fill="#ffffff" fill-opacity="1"><g transform="translate(71.388599, 17.325489)"><g><path d="M 8.589844 -0.683594 L 8.589844 -7.226562 L 6.339844 -7.226562 L 6.339844 -6.296875 L 6.3125 -6.296875 C 5.804688 -7.066406 4.902344 -7.429688 4.003906 -7.429688 C 1.828125 -7.429688 0.566406 -5.644531 0.566406 -3.640625 C 0.566406 -1.640625 1.828125 0.0742188 4.019531 0.0742188 C 4.976562 0.0742188 5.761719 -0.304688 6.210938 -0.886719 L 6.253906 -0.886719 L 6.253906 -0.449219 C 6.253906 0.753906 5.601562 1.566406 4.207031 1.566406 C 3.394531 1.566406 2.511719 1.261719 1.8125 0.652344 L 0.625 2.351562 C 1.597656 3.074219 3.074219 3.480469 4.339844 3.480469 C 6.90625 3.480469 8.589844 2.148438 8.589844 -0.683594 Z M 6.324219 -3.65625 C 6.324219 -2.667969 5.660156 -1.8125 4.570312 -1.8125 C 3.496094 -1.8125 2.871094 -2.699219 2.871094 -3.65625 C 2.871094 -4.65625 3.496094 -5.484375 4.570312 -5.484375 C 5.644531 -5.484375 6.324219 -4.644531 6.324219 -3.65625 Z M 6.324219 -3.65625 "/></g></g></g><g fill="#ffffff" fill-opacity="1"><g transform="translate(80.932805, 17.325489)"><g><path d="M 5.714844 -7.371094 C 5.601562 -7.414062 5.398438 -7.429688 5.207031 -7.429688 C 4.324219 -7.429688 3.613281 -6.90625 3.25 -6.179688 L 3.222656 -6.179688 L 3.222656 -7.226562 L 0.929688 -7.226562 L 0.929688 0 L 3.308594 0 L 3.308594 -3.714844 C 3.308594 -4.308594 3.730469 -5.355469 5.003906 -5.355469 C 5.195312 -5.355469 5.398438 -5.339844 5.613281 -5.28125 Z M 5.714844 -7.371094 "/></g></g></g><g fill="#ffffff" fill-opacity="1"><g transform="translate(86.676728, 17.325489)"><g><path d="M 5.195312 -2.902344 C 5.195312 -2.003906 4.65625 -1.421875 3.699219 -1.421875 C 3.222656 -1.421875 2.667969 -1.609375 2.667969 -2.160156 C 2.667969 -3.019531 3.84375 -3.148438 4.890625 -3.148438 L 5.195312 -3.148438 Z M 2.03125 -4.949219 C 2.464844 -5.355469 3.132812 -5.6875 3.816406 -5.6875 C 4.554688 -5.6875 5.121094 -5.355469 5.121094 -4.644531 L 5.121094 -4.527344 C 3.019531 -4.527344 0.480469 -4.179688 0.480469 -2.089844 C 0.480469 -0.390625 1.957031 0.175781 3.105469 0.175781 C 3.960938 0.175781 4.789062 -0.175781 5.152344 -0.769531 L 5.195312 -0.769531 L 5.195312 0 L 7.371094 0 L 7.371094 -3.640625 C 7.371094 -6.269531 6.472656 -7.457031 4.046875 -7.457031 C 2.871094 -7.457031 1.667969 -7.035156 0.828125 -6.238281 Z M 2.03125 -4.949219 "/></g></g></g><g fill="#ffffff" fill-opacity="1"><g transform="translate(94.886483, 17.325489)"><g><path d="M 12.535156 0 L 12.535156 -4.46875 C 12.535156 -5.832031 11.867188 -7.429688 9.910156 -7.429688 C 8.835938 -7.429688 8.082031 -6.949219 7.601562 -6.195312 C 7.195312 -6.980469 6.472656 -7.429688 5.425781 -7.429688 C 4.339844 -7.429688 3.597656 -6.832031 3.265625 -6.222656 L 3.234375 -6.222656 L 3.234375 -7.226562 L 0.929688 -7.226562 L 0.929688 0 L 3.324219 0 L 3.324219 -3.917969 C 3.324219 -4.789062 3.757812 -5.46875 4.511719 -5.46875 C 5.222656 -5.46875 5.542969 -4.949219 5.542969 -4.121094 L 5.542969 0 L 7.921875 0 L 7.921875 -3.902344 C 7.921875 -4.714844 8.3125 -5.46875 9.125 -5.46875 C 9.96875 -5.46875 10.15625 -4.773438 10.15625 -3.945312 L 10.15625 0 Z M 12.535156 0 "/></g></g></g></svg>