<svg xmlns="http://www.w3.org/2000/svg" xmlns:xlink="http://www.w3.org/1999/xlink" width="171" zoomAndPan="magnify" viewBox="0 0 128.25 30.000001" height="40" preserveAspectRatio="xMidYMid meet" version="1.0"><defs><g/><clipPath id="ab528b4891"><path d="M 6.335938 4 L 25 4 L 25 23 L 6.335938 23 Z M 6.335938 4 " clip-rule="nonzero"/></clipPath><clipPath id="73af74c772"><path d="M 22.992188 13.425781 C 22.992188 17.570312 19.625 20.929688 15.472656 20.929688 C 11.316406 20.929688 7.953125 17.570312 7.953125 13.425781 C 7.953125 9.285156 11.316406 5.925781 15.472656 5.925781 C 19.625 5.925781 22.992188 9.285156 22.992188 13.425781 Z M 24.261719 13.425781 C 24.261719 18.269531 20.324219 22.199219 15.472656 22.199219 C 10.617188 22.199219 6.683594 18.269531 6.683594 13.425781 C 6.683594 8.582031 10.617188 4.65625 15.472656 4.65625 C 20.324219 4.65625 24.261719 8.582031 24.261719 13.425781 Z M 20.320312 9.496094 C 20.320312 9.996094 19.914062 10.402344 19.410156 10.402344 C 18.910156 10.402344 18.5 9.996094 18.5 9.496094 C 18.5 8.996094 18.910156 8.589844 19.410156 8.589844 C 19.914062 8.589844 20.320312 8.996094 20.320312 9.496094 Z M 12.828125 14.132812 C 13.21875 15.589844 14.71875 16.457031 16.179688 16.066406 C 17.640625 15.675781 18.507812 14.175781 18.113281 12.71875 C 17.722656 11.261719 16.222656 10.398438 14.761719 10.789062 C 13.300781 11.179688 12.4375 12.675781 12.828125 14.132812 Z M 11.601562 14.460938 C 12.171875 16.59375 14.371094 17.859375 16.507812 17.289062 C 18.644531 16.71875 19.914062 14.527344 19.339844 12.394531 C 18.769531 10.261719 16.570312 8.996094 14.433594 9.566406 C 12.296875 10.136719 11.027344 12.328125 11.601562 14.460938 Z M 11.601562 14.460938 " clip-rule="evenodd"/></clipPath><linearGradient x1="15" gradientTransform="matrix(0.585943, 0, 0, 0.584677, 6.681842, 2.903228)" y1="3" x2="15" gradientUnits="userSpaceOnUse" y2="32.999998" id="4f5ca36555"><stop stop-opacity="1" stop-color="rgb(52.89917%, 49.398804%, 100%)" offset="0"/><stop stop-opacity="1" stop-color="rgb(52.796936%, 49.28894%, 100%)" offset="0.0078125"/><stop stop-opacity="1" stop-color="rgb(52.590942%, 49.07074%, 100%)" offset="0.015625"/><stop stop-opacity="1" stop-color="rgb(52.386475%, 48.852539%, 100%)" offset="0.0234375"/><stop stop-opacity="1" stop-color="rgb(52.180481%, 48.632812%, 100%)" offset="0.03125"/><stop stop-opacity="1" stop-color="rgb(51.976013%, 48.414612%, 100%)" offset="0.0390625"/><stop stop-opacity="1" stop-color="rgb(51.771545%, 48.196411%, 100%)" offset="0.046875"/><stop stop-opacity="1" stop-color="rgb(51.565552%, 47.97821%, 100%)" offset="0.0546875"/><stop stop-opacity="1" stop-color="rgb(51.361084%, 47.758484%, 100%)" offset="0.0625"/><stop stop-opacity="1" stop-color="rgb(51.156616%, 47.540283%, 100%)" offset="0.0703125"/><stop stop-opacity="1" stop-color="rgb(50.950623%, 47.322083%, 100%)" offset="0.078125"/><stop stop-opacity="1" stop-color="rgb(50.746155%, 47.103882%, 100%)" offset="0.0859375"/><stop stop-opacity="1" stop-color="rgb(50.540161%, 46.884155%, 100%)" offset="0.09375"/><stop stop-opacity="1" stop-color="rgb(50.335693%, 46.665955%, 100%)" offset="0.101562"/><stop stop-opacity="1" stop-color="rgb(50.131226%, 46.447754%, 100%)" offset="0.109375"/><stop stop-opacity="1" stop-color="rgb(49.925232%, 46.228027%, 100%)" offset="0.117187"/><stop stop-opacity="1" stop-color="rgb(49.720764%, 46.009827%, 100%)" offset="0.125"/><stop stop-opacity="1" stop-color="rgb(49.514771%, 45.791626%, 100%)" offset="0.132812"/><stop stop-opacity="1" stop-color="rgb(49.310303%, 45.573425%, 100%)" offset="0.140625"/><stop stop-opacity="1" stop-color="rgb(49.105835%, 45.353699%, 100%)" offset="0.148438"/><stop stop-opacity="1" stop-color="rgb(48.899841%, 45.135498%, 100%)" offset="0.15625"/><stop stop-opacity="1" stop-color="rgb(48.695374%, 44.917297%, 100%)" offset="0.164062"/><stop stop-opacity="1" stop-color="rgb(48.490906%, 44.699097%, 100%)" offset="0.171875"/><stop stop-opacity="1" stop-color="rgb(48.284912%, 44.47937%, 100%)" offset="0.179688"/><stop stop-opacity="1" stop-color="rgb(48.080444%, 44.261169%, 100%)" offset="0.1875"/><stop stop-opacity="1" stop-color="rgb(47.874451%, 44.042969%, 100%)" offset="0.195312"/><stop stop-opacity="1" stop-color="rgb(47.669983%, 43.824768%, 100%)" offset="0.203125"/><stop stop-opacity="1" stop-color="rgb(47.465515%, 43.605042%, 100%)" offset="0.210938"/><stop stop-opacity="1" stop-color="rgb(47.259521%, 43.386841%, 100%)" offset="0.21875"/><stop stop-opacity="1" stop-color="rgb(47.055054%, 43.16864%, 100%)" offset="0.226562"/><stop stop-opacity="1" stop-color="rgb(46.84906%, 42.948914%, 100%)" offset="0.234375"/><stop stop-opacity="1" stop-color="rgb(46.644592%, 42.730713%, 100%)" offset="0.242188"/><stop stop-opacity="1" stop-color="rgb(46.440125%, 42.512512%, 100%)" offset="0.25"/><stop stop-opacity="1" stop-color="rgb(46.234131%, 42.294312%, 100%)" offset="0.257812"/><stop stop-opacity="1" stop-color="rgb(46.029663%, 42.074585%, 100%)" offset="0.265625"/><stop stop-opacity="1" stop-color="rgb(45.825195%, 41.856384%, 100%)" offset="0.273438"/><stop stop-opacity="1" stop-color="rgb(45.619202%, 41.638184%, 100%)" offset="0.28125"/><stop stop-opacity="1" stop-color="rgb(45.414734%, 41.419983%, 100%)" offset="0.289062"/><stop stop-opacity="1" stop-color="rgb(45.20874%, 41.200256%, 100%)" offset="0.296875"/><stop stop-opacity="1" stop-color="rgb(45.004272%, 40.982056%, 100%)" offset="0.304688"/><stop stop-opacity="1" stop-color="rgb(44.799805%, 40.763855%, 100%)" offset="0.3125"/><stop stop-opacity="1" stop-color="rgb(44.593811%, 40.544128%, 100%)" offset="0.320312"/><stop stop-opacity="1" stop-color="rgb(44.389343%, 40.325928%, 100%)" offset="0.328125"/><stop stop-opacity="1" stop-color="rgb(44.18335%, 40.107727%, 100%)" offset="0.335938"/><stop stop-opacity="1" stop-color="rgb(43.978882%, 39.889526%, 100%)" offset="0.34375"/><stop stop-opacity="1" stop-color="rgb(43.774414%, 39.6698%, 100%)" offset="0.351562"/><stop stop-opacity="1" stop-color="rgb(43.56842%, 39.451599%, 100%)" offset="0.359375"/><stop stop-opacity="1" stop-color="rgb(43.363953%, 39.233398%, 100%)" offset="0.367188"/><stop stop-opacity="1" stop-color="rgb(43.159485%, 39.015198%, 100%)" offset="0.375"/><stop stop-opacity="1" stop-color="rgb(42.953491%, 38.795471%, 100%)" offset="0.382813"/><stop stop-opacity="1" stop-color="rgb(42.749023%, 38.577271%, 100%)" offset="0.390625"/><stop stop-opacity="1" stop-color="rgb(42.54303%, 38.35907%, 100%)" offset="0.398438"/><stop stop-opacity="1" stop-color="rgb(42.338562%, 38.139343%, 100%)" offset="0.40625"/><stop stop-opacity="1" stop-color="rgb(42.134094%, 37.921143%, 100%)" offset="0.414062"/><stop stop-opacity="1" stop-color="rgb(41.928101%, 37.702942%, 100%)" offset="0.421875"/><stop stop-opacity="1" stop-color="rgb(41.723633%, 37.484741%, 100%)" offset="0.429688"/><stop stop-opacity="1" stop-color="rgb(41.517639%, 37.265015%, 100%)" offset="0.4375"/><stop stop-opacity="1" stop-color="rgb(41.313171%, 37.046814%, 100%)" offset="0.445312"/><stop stop-opacity="1" stop-color="rgb(41.108704%, 36.828613%, 100%)" offset="0.453125"/><stop stop-opacity="1" stop-color="rgb(40.90271%, 36.610413%, 100%)" offset="0.460938"/><stop stop-opacity="1" stop-color="rgb(40.644836%, 36.329651%, 100%)" offset="0.46875"/><stop stop-opacity="1" stop-color="rgb(40.332031%, 35.98938%, 100%)" offset="0.476562"/><stop stop-opacity="1" stop-color="rgb(40.0177%, 35.646057%, 100%)" offset="0.484375"/><stop stop-opacity="1" stop-color="rgb(39.704895%, 35.30426%, 100%)" offset="0.492188"/><stop stop-opacity="1" stop-color="rgb(39.39209%, 34.962463%, 100%)" offset="0.5"/><stop stop-opacity="1" stop-color="rgb(39.079285%, 34.620667%, 100%)" offset="0.507812"/><stop stop-opacity="1" stop-color="rgb(38.766479%, 34.27887%, 100%)" offset="0.515625"/><stop stop-opacity="1" stop-color="rgb(38.453674%, 33.937073%, 100%)" offset="0.523438"/><stop stop-opacity="1" stop-color="rgb(38.139343%, 33.59375%, 100%)" offset="0.53125"/><stop stop-opacity="1" stop-color="rgb(37.826538%, 33.251953%, 100%)" offset="0.539062"/><stop stop-opacity="1" stop-color="rgb(37.513733%, 32.910156%, 100%)" offset="0.546875"/><stop stop-opacity="1" stop-color="rgb(37.200928%, 32.568359%, 100%)" offset="0.554688"/><stop stop-opacity="1" stop-color="rgb(36.888123%, 32.226562%, 100%)" offset="0.5625"/><stop stop-opacity="1" stop-color="rgb(36.573792%, 31.88324%, 100%)" offset="0.570313"/><stop stop-opacity="1" stop-color="rgb(36.260986%, 31.541443%, 100%)" offset="0.578125"/><stop stop-opacity="1" stop-color="rgb(35.948181%, 31.199646%, 100%)" offset="0.585938"/><stop stop-opacity="1" stop-color="rgb(35.635376%, 30.857849%, 100%)" offset="0.59375"/><stop stop-opacity="1" stop-color="rgb(35.322571%, 30.516052%, 100%)" offset="0.601562"/><stop stop-opacity="1" stop-color="rgb(35.009766%, 30.174255%, 100%)" offset="0.609375"/><stop stop-opacity="1" stop-color="rgb(34.695435%, 29.830933%, 100%)" offset="0.617188"/><stop stop-opacity="1" stop-color="rgb(34.382629%, 29.489136%, 100%)" offset="0.625"/><stop stop-opacity="1" stop-color="rgb(34.069824%, 29.147339%, 100%)" offset="0.632812"/><stop stop-opacity="1" stop-color="rgb(33.757019%, 28.805542%, 100%)" offset="0.640625"/><stop stop-opacity="1" stop-color="rgb(33.444214%, 28.463745%, 100%)" offset="0.648438"/><stop stop-opacity="1" stop-color="rgb(33.131409%, 28.120422%, 100%)" offset="0.65625"/><stop stop-opacity="1" stop-color="rgb(32.817078%, 27.778625%, 100%)" offset="0.664063"/><stop stop-opacity="1" stop-color="rgb(32.504272%, 27.436829%, 100%)" offset="0.671875"/><stop stop-opacity="1" stop-color="rgb(32.191467%, 27.095032%, 100%)" offset="0.679688"/><stop stop-opacity="1" stop-color="rgb(31.878662%, 26.753235%, 100%)" offset="0.6875"/><stop stop-opacity="1" stop-color="rgb(31.565857%, 26.411438%, 100%)" offset="0.695312"/><stop stop-opacity="1" stop-color="rgb(31.251526%, 26.068115%, 100%)" offset="0.703125"/><stop stop-opacity="1" stop-color="rgb(30.938721%, 25.726318%, 100%)" offset="0.710938"/><stop stop-opacity="1" stop-color="rgb(30.625916%, 25.384521%, 100%)" offset="0.71875"/><stop stop-opacity="1" stop-color="rgb(30.31311%, 25.042725%, 100%)" offset="0.726562"/><stop stop-opacity="1" stop-color="rgb(30.000305%, 24.700928%, 100%)" offset="0.734375"/><stop stop-opacity="1" stop-color="rgb(29.6875%, 24.359131%, 100%)" offset="0.742188"/><stop stop-opacity="1" stop-color="rgb(29.373169%, 24.015808%, 100%)" offset="0.75"/><stop stop-opacity="1" stop-color="rgb(29.060364%, 23.674011%, 100%)" offset="0.757812"/><stop stop-opacity="1" stop-color="rgb(28.747559%, 23.332214%, 100%)" offset="0.765625"/><stop stop-opacity="1" stop-color="rgb(28.434753%, 22.990417%, 100%)" offset="0.773438"/><stop stop-opacity="1" stop-color="rgb(28.121948%, 22.648621%, 100%)" offset="0.78125"/><stop stop-opacity="1" stop-color="rgb(27.807617%, 22.305298%, 100%)" offset="0.789062"/><stop stop-opacity="1" stop-color="rgb(27.494812%, 21.963501%, 100%)" offset="0.796875"/><stop stop-opacity="1" stop-color="rgb(27.182007%, 21.621704%, 100%)" offset="0.804688"/><stop stop-opacity="1" stop-color="rgb(26.869202%, 21.279907%, 100%)" offset="0.8125"/><stop stop-opacity="1" stop-color="rgb(26.556396%, 20.93811%, 100%)" offset="0.820312"/><stop stop-opacity="1" stop-color="rgb(26.243591%, 20.596313%, 100%)" offset="0.828125"/><stop stop-opacity="1" stop-color="rgb(25.92926%, 20.252991%, 100%)" offset="0.835938"/><stop stop-opacity="1" stop-color="rgb(25.616455%, 19.911194%, 100%)" offset="0.84375"/><stop stop-opacity="1" stop-color="rgb(25.30365%, 19.569397%, 100%)" offset="0.851562"/><stop stop-opacity="1" stop-color="rgb(24.990845%, 19.2276%, 100%)" offset="0.859375"/><stop stop-opacity="1" stop-color="rgb(24.67804%, 18.885803%, 100%)" offset="0.867188"/><stop stop-opacity="1" stop-color="rgb(24.363708%, 18.54248%, 100%)" offset="0.875"/><stop stop-opacity="1" stop-color="rgb(24.050903%, 18.200684%, 100%)" offset="0.882812"/><stop stop-opacity="1" stop-color="rgb(23.738098%, 17.858887%, 100%)" offset="0.890625"/><stop stop-opacity="1" stop-color="rgb(23.425293%, 17.51709%, 100%)" offset="0.898438"/><stop stop-opacity="1" stop-color="rgb(23.112488%, 17.175293%, 100%)" offset="0.90625"/><stop stop-opacity="1" stop-color="rgb(22.799683%, 16.833496%, 100%)" offset="0.914063"/><stop stop-opacity="1" stop-color="rgb(22.485352%, 16.490173%, 100%)" offset="0.921875"/><stop stop-opacity="1" stop-color="rgb(22.172546%, 16.148376%, 100%)" offset="0.929688"/><stop stop-opacity="1" stop-color="rgb(21.859741%, 15.80658%, 100%)" offset="0.9375"/><stop stop-opacity="1" stop-color="rgb(21.546936%, 15.464783%, 100%)" offset="0.945312"/><stop stop-opacity="1" stop-color="rgb(21.234131%, 15.122986%, 100%)" offset="0.953125"/><stop stop-opacity="1" stop-color="rgb(20.9198%, 14.781189%, 100%)" offset="0.960938"/><stop stop-opacity="1" stop-color="rgb(20.606995%, 14.437866%, 100%)" offset="0.96875"/><stop stop-opacity="1" stop-color="rgb(20.294189%, 14.096069%, 100%)" offset="0.976562"/><stop stop-opacity="1" stop-color="rgb(19.981384%, 13.754272%, 100%)" offset="0.984375"/><stop stop-opacity="1" stop-color="rgb(19.668579%, 13.412476%, 100%)" offset="0.992188"/><stop stop-opacity="1" stop-color="rgb(19.355774%, 13.070679%, 100%)" offset="1"/></linearGradient></defs><g clip-path="url(#ab528b4891)"><g clip-path="url(#73af74c772)"><path fill="url(#4f5ca36555)" d="M 6.683594 4.65625 L 6.683594 22.199219 L 24.261719 22.199219 L 24.261719 4.65625 Z M 6.683594 4.65625 " fill-rule="nonzero"/></g></g><g fill="#ffffff" fill-opacity="1"><g transform="translate(26.649851, 18.25169)"><g><path d="M 8.710938 -10.011719 C 7.742188 -10.90625 6.332031 -11.375 5.078125 -11.375 C 3.007812 -11.375 0.785156 -10.359375 0.785156 -7.898438 C 0.785156 -5.890625 2.210938 -5.171875 3.621094 -4.714844 C 5.078125 -4.246094 5.921875 -3.980469 5.921875 -3.132812 C 5.921875 -2.242188 5.203125 -1.925781 4.386719 -1.925781 C 3.511719 -1.925781 2.523438 -2.429688 1.988281 -3.101562 L 0.234375 -1.316406 C 1.207031 -0.296875 2.804688 0.28125 4.386719 0.28125 C 6.582031 0.28125 8.632812 -0.863281 8.632812 -3.417969 C 8.632812 -5.625 6.691406 -6.269531 5.1875 -6.753906 C 4.136719 -7.082031 3.480469 -7.316406 3.480469 -8.054688 C 3.480469 -8.933594 4.339844 -9.167969 5.03125 -9.167969 C 5.71875 -9.167969 6.550781 -8.789062 7.003906 -8.210938 Z M 8.710938 -10.011719 "/></g></g></g><g fill="#ffffff" fill-opacity="1"><g transform="translate(35.905799, 18.25169)"><g><path d="M 5.609375 -3.132812 C 5.609375 -2.164062 5.03125 -1.535156 3.996094 -1.535156 C 3.480469 -1.535156 2.882812 -1.738281 2.882812 -2.335938 C 2.882812 -3.257812 4.152344 -3.402344 5.28125 -3.402344 L 5.609375 -3.402344 Z M 2.195312 -5.34375 C 2.664062 -5.78125 3.382812 -6.144531 4.121094 -6.144531 C 4.921875 -6.144531 5.53125 -5.78125 5.53125 -5.015625 L 5.53125 -4.890625 C 3.257812 -4.890625 0.515625 -4.511719 0.515625 -2.257812 C 0.515625 -0.421875 2.117188 0.1875 3.351562 0.1875 C 4.277344 0.1875 5.171875 -0.1875 5.5625 -0.832031 L 5.609375 -0.832031 L 5.609375 0 L 7.960938 0 L 7.960938 -3.933594 C 7.960938 -6.769531 6.988281 -8.054688 4.371094 -8.054688 C 3.101562 -8.054688 1.800781 -7.601562 0.894531 -6.738281 Z M 2.195312 -5.34375 "/></g></g></g><g fill="#ffffff" fill-opacity="1"><g transform="translate(44.770215, 18.25169)"><g><path d="M 13.539062 0 L 13.539062 -4.828125 C 13.539062 -6.300781 12.816406 -8.023438 10.703125 -8.023438 C 9.542969 -8.023438 8.726562 -7.507812 8.210938 -6.691406 C 7.773438 -7.539062 6.988281 -8.023438 5.859375 -8.023438 C 4.683594 -8.023438 3.886719 -7.378906 3.527344 -6.722656 L 3.496094 -6.722656 L 3.496094 -7.804688 L 1.003906 -7.804688 L 1.003906 0 L 3.589844 0 L 3.589844 -4.230469 C 3.589844 -5.171875 4.058594 -5.90625 4.875 -5.90625 C 5.640625 -5.90625 5.984375 -5.34375 5.984375 -4.449219 L 5.984375 0 L 8.554688 0 L 8.554688 -4.214844 C 8.554688 -5.09375 8.980469 -5.90625 9.855469 -5.90625 C 10.765625 -5.90625 10.96875 -5.15625 10.96875 -4.261719 L 10.96875 0 Z M 13.539062 0 "/></g></g></g><g fill="#ffffff" fill-opacity="1"><g transform="translate(59.241447, 18.25169)"><g><path d="M 5.609375 -3.132812 C 5.609375 -2.164062 5.03125 -1.535156 3.996094 -1.535156 C 3.480469 -1.535156 2.882812 -1.738281 2.882812 -2.335938 C 2.882812 -3.257812 4.152344 -3.402344 5.28125 -3.402344 L 5.609375 -3.402344 Z M 2.195312 -5.34375 C 2.664062 -5.78125 3.382812 -6.144531 4.121094 -6.144531 C 4.921875 -6.144531 5.53125 -5.78125 5.53125 -5.015625 L 5.53125 -4.890625 C 3.257812 -4.890625 0.515625 -4.511719 0.515625 -2.257812 C 0.515625 -0.421875 2.117188 0.1875 3.351562 0.1875 C 4.277344 0.1875 5.171875 -0.1875 5.5625 -0.832031 L 5.609375 -0.832031 L 5.609375 0 L 7.960938 0 L 7.960938 -3.933594 C 7.960938 -6.769531 6.988281 -8.054688 4.371094 -8.054688 C 3.101562 -8.054688 1.800781 -7.601562 0.894531 -6.738281 Z M 2.195312 -5.34375 "/></g></g></g><g fill="#ffffff" fill-opacity="1"><g transform="translate(68.105863, 18.25169)"><g><path d="M 3.839844 -10.296875 C 3.839844 -11.078125 3.179688 -11.707031 2.367188 -11.707031 C 1.535156 -11.707031 0.894531 -11.046875 0.894531 -10.296875 C 0.894531 -9.527344 1.535156 -8.886719 2.367188 -8.886719 C 3.179688 -8.886719 3.839844 -9.496094 3.839844 -10.296875 Z M 3.652344 0.203125 L 3.652344 -7.804688 L 1.082031 -7.804688 L 1.082031 0.203125 C 1.082031 1.003906 0.894531 1.566406 0.140625 1.566406 C 0 1.566406 -0.21875 1.550781 -0.40625 1.488281 L -0.578125 3.636719 C -0.296875 3.714844 0.1875 3.761719 0.53125 3.761719 C 3.054688 3.761719 3.652344 2.132812 3.652344 0.203125 Z M 3.652344 0.203125 "/></g></g></g><g fill="#ffffff" fill-opacity="1"><g transform="translate(72.788652, 18.25169)"><g><path d="M 7.003906 -6.957031 C 6.238281 -7.679688 5.03125 -8.054688 3.871094 -8.054688 C 2.382812 -8.054688 0.625 -7.300781 0.625 -5.4375 C 0.625 -3.964844 1.816406 -3.417969 2.898438 -3.164062 C 3.964844 -2.914062 4.449219 -2.757812 4.449219 -2.273438 C 4.449219 -1.769531 3.949219 -1.597656 3.527344 -1.597656 C 2.773438 -1.597656 2.070312 -1.972656 1.613281 -2.476562 L 0.171875 -0.957031 C 0.988281 -0.171875 2.304688 0.25 3.574219 0.25 C 5.171875 0.25 6.910156 -0.4375 6.910156 -2.414062 C 6.910156 -3.933594 5.609375 -4.527344 4.417969 -4.796875 C 3.417969 -5.015625 2.992188 -5.140625 2.992188 -5.578125 C 2.992188 -6.03125 3.480469 -6.207031 3.964844 -6.207031 C 4.589844 -6.207031 5.1875 -5.890625 5.59375 -5.5 Z M 7.003906 -6.957031 "/></g></g></g><g fill="#ffffff" fill-opacity="1"><g transform="translate(80.180879, 18.25169)"><g><path d="M 9.683594 -3.933594 C 9.683594 -6.113281 8.257812 -8.023438 5.984375 -8.023438 C 4.84375 -8.023438 3.964844 -7.476562 3.496094 -6.847656 L 3.449219 -6.847656 L 3.449219 -7.804688 L 1.003906 -7.804688 L 1.003906 3.761719 L 3.574219 3.761719 L 3.574219 -0.863281 L 3.605469 -0.863281 C 4.089844 -0.1875 5.015625 0.21875 5.96875 0.21875 C 8.320312 0.21875 9.683594 -1.753906 9.683594 -3.933594 Z M 7.191406 -3.933594 C 7.191406 -2.914062 6.582031 -1.910156 5.359375 -1.910156 C 4.199219 -1.910156 3.480469 -2.898438 3.480469 -3.917969 C 3.480469 -4.90625 4.199219 -5.921875 5.359375 -5.921875 C 6.582031 -5.921875 7.191406 -4.9375 7.191406 -3.933594 Z M 7.191406 -3.933594 "/></g></g></g><g fill="#ffffff" fill-opacity="1"><g transform="translate(90.470483, 18.25169)"><g><path d="M 8.726562 0 L 8.726562 -4.828125 C 8.726562 -6.394531 7.992188 -8.023438 5.875 -8.023438 C 4.796875 -8.023438 3.980469 -7.441406 3.636719 -6.816406 L 3.605469 -6.816406 L 3.605469 -11.847656 L 1.035156 -11.847656 L 1.035156 0 L 3.605469 0 L 3.605469 -4.214844 C 3.605469 -5.140625 4.105469 -5.875 5 -5.875 C 5.921875 -5.875 6.144531 -5.109375 6.144531 -4.230469 L 6.144531 0 Z M 8.726562 0 "/></g></g></g><g fill="#ffffff" fill-opacity="1"><g transform="translate(100.133634, 18.25169)"><g><path d="M 3.070312 -4.796875 C 3.132812 -5.59375 3.855469 -6.285156 4.84375 -6.285156 C 5.859375 -6.285156 6.378906 -5.609375 6.378906 -4.796875 Z M 8.742188 -3.808594 C 8.742188 -6.472656 7.128906 -8.054688 4.828125 -8.054688 C 2.460938 -8.054688 0.609375 -6.425781 0.609375 -3.871094 C 0.609375 -1.238281 2.554688 0.25 4.90625 0.25 C 6.488281 0.25 7.710938 -0.34375 8.445312 -1.410156 L 6.660156 -2.539062 C 6.316406 -2.070312 5.75 -1.722656 4.9375 -1.722656 C 4.011719 -1.722656 3.148438 -2.335938 3.070312 -3.195312 L 8.726562 -3.195312 C 8.742188 -3.382812 8.742188 -3.605469 8.742188 -3.808594 Z M 8.742188 -3.808594 "/></g></g></g><g fill="#ffffff" fill-opacity="1"><g transform="translate(109.467893, 18.25169)"><g><path d="M 6.175781 -7.960938 C 6.046875 -8.007812 5.828125 -8.023438 5.625 -8.023438 C 4.667969 -8.023438 3.902344 -7.460938 3.511719 -6.675781 L 3.480469 -6.675781 L 3.480469 -7.804688 L 1.003906 -7.804688 L 1.003906 0 L 3.574219 0 L 3.574219 -4.011719 C 3.574219 -4.652344 4.027344 -5.78125 5.40625 -5.78125 C 5.609375 -5.78125 5.828125 -5.765625 6.0625 -5.703125 Z M 6.175781 -7.960938 "/></g></g></g><g fill="#ffffff" fill-opacity="1"><g transform="translate(115.669852, 18.25169)"><g><path d="M 3.070312 -4.796875 C 3.132812 -5.59375 3.855469 -6.285156 4.84375 -6.285156 C 5.859375 -6.285156 6.378906 -5.609375 6.378906 -4.796875 Z M 8.742188 -3.808594 C 8.742188 -6.472656 7.128906 -8.054688 4.828125 -8.054688 C 2.460938 -8.054688 0.609375 -6.425781 0.609375 -3.871094 C 0.609375 -1.238281 2.554688 0.25 4.90625 0.25 C 6.488281 0.25 7.710938 -0.34375 8.445312 -1.410156 L 6.660156 -2.539062 C 6.316406 -2.070312 5.75 -1.722656 4.9375 -1.722656 C 4.011719 -1.722656 3.148438 -2.335938 3.070312 -3.195312 L 8.726562 -3.195312 C 8.742188 -3.382812 8.742188 -3.605469 8.742188 -3.808594 Z M 8.742188 -3.808594 "/></g></g></g></svg>