<svg xmlns="http://www.w3.org/2000/svg" xmlns:xlink="http://www.w3.org/1999/xlink" width="171" zoomAndPan="magnify" viewBox="0 0 128.25 30.000001" height="40" preserveAspectRatio="xMidYMid meet" version="1.0"><defs><g/><clipPath id="8cce922cc9"><path d="M 6.335938 4 L 25 4 L 25 23 L 6.335938 23 Z M 6.335938 4 " clip-rule="nonzero"/></clipPath><clipPath id="cf345d5201"><path d="M 22.992188 13.425781 C 22.992188 17.570312 19.625 20.929688 15.472656 20.929688 C 11.316406 20.929688 7.953125 17.570312 7.953125 13.425781 C 7.953125 9.285156 11.316406 5.925781 15.472656 5.925781 C 19.625 5.925781 22.992188 9.285156 22.992188 13.425781 Z M 24.261719 13.425781 C 24.261719 18.269531 20.324219 22.199219 15.472656 22.199219 C 10.617188 22.199219 6.683594 18.269531 6.683594 13.425781 C 6.683594 8.582031 10.617188 4.65625 15.472656 4.65625 C 20.324219 4.65625 24.261719 8.582031 24.261719 13.425781 Z M 20.320312 9.496094 C 20.320312 9.996094 19.914062 10.402344 19.410156 10.402344 C 18.910156 10.402344 18.5 9.996094 18.5 9.496094 C 18.5 8.996094 18.910156 8.589844 19.410156 8.589844 C 19.914062 8.589844 20.320312 8.996094 20.320312 9.496094 Z M 12.828125 14.132812 C 13.21875 15.589844 14.71875 16.457031 16.179688 16.066406 C 17.640625 15.675781 18.507812 14.175781 18.113281 12.71875 C 17.722656 11.261719 16.222656 10.398438 14.761719 10.789062 C 13.300781 11.179688 12.4375 12.675781 12.828125 14.132812 Z M 11.601562 14.460938 C 12.171875 16.59375 14.371094 17.859375 16.507812 17.289062 C 18.644531 16.71875 19.914062 14.527344 19.339844 12.394531 C 18.769531 10.261719 16.570312 8.996094 14.433594 9.566406 C 12.296875 10.136719 11.027344 12.328125 11.601562 14.460938 Z M 11.601562 14.460938 " clip-rule="evenodd"/></clipPath><linearGradient x1="15" gradientTransform="matrix(0.585943, 0, 0, 0.584677, 6.681842, 2.903228)" y1="3" x2="15" gradientUnits="userSpaceOnUse" y2="32.999998" id="15723219fd"><stop stop-opacity="1" stop-color="rgb(52.89917%, 49.398804%, 100%)" offset="0"/><stop stop-opacity="1" stop-color="rgb(52.796936%, 49.28894%, 100%)" offset="0.0078125"/><stop stop-opacity="1" stop-color="rgb(52.590942%, 49.07074%, 100%)" offset="0.015625"/><stop stop-opacity="1" stop-color="rgb(52.386475%, 48.852539%, 100%)" offset="0.0234375"/><stop stop-opacity="1" stop-color="rgb(52.180481%, 48.632812%, 100%)" offset="0.03125"/><stop stop-opacity="1" stop-color="rgb(51.976013%, 48.414612%, 100%)" offset="0.0390625"/><stop stop-opacity="1" stop-color="rgb(51.771545%, 48.196411%, 100%)" offset="0.046875"/><stop stop-opacity="1" stop-color="rgb(51.565552%, 47.97821%, 100%)" offset="0.0546875"/><stop stop-opacity="1" stop-color="rgb(51.361084%, 47.758484%, 100%)" offset="0.0625"/><stop stop-opacity="1" stop-color="rgb(51.156616%, 47.540283%, 100%)" offset="0.0703125"/><stop stop-opacity="1" stop-color="rgb(50.950623%, 47.322083%, 100%)" offset="0.078125"/><stop stop-opacity="1" stop-color="rgb(50.746155%, 47.103882%, 100%)" offset="0.0859375"/><stop stop-opacity="1" stop-color="rgb(50.540161%, 46.884155%, 100%)" offset="0.09375"/><stop stop-opacity="1" stop-color="rgb(50.335693%, 46.665955%, 100%)" offset="0.101562"/><stop stop-opacity="1" stop-color="rgb(50.131226%, 46.447754%, 100%)" offset="0.109375"/><stop stop-opacity="1" stop-color="rgb(49.925232%, 46.228027%, 100%)" offset="0.117187"/><stop stop-opacity="1" stop-color="rgb(49.720764%, 46.009827%, 100%)" offset="0.125"/><stop stop-opacity="1" stop-color="rgb(49.514771%, 45.791626%, 100%)" offset="0.132812"/><stop stop-opacity="1" stop-color="rgb(49.310303%, 45.573425%, 100%)" offset="0.140625"/><stop stop-opacity="1" stop-color="rgb(49.105835%, 45.353699%, 100%)" offset="0.148438"/><stop stop-opacity="1" stop-color="rgb(48.899841%, 45.135498%, 100%)" offset="0.15625"/><stop stop-opacity="1" stop-color="rgb(48.695374%, 44.917297%, 100%)" offset="0.164062"/><stop stop-opacity="1" stop-color="rgb(48.490906%, 44.699097%, 100%)" offset="0.171875"/><stop stop-opacity="1" stop-color="rgb(48.284912%, 44.47937%, 100%)" offset="0.179688"/><stop stop-opacity="1" stop-color="rgb(48.080444%, 44.261169%, 100%)" offset="0.1875"/><stop stop-opacity="1" stop-color="rgb(47.874451%, 44.042969%, 100%)" offset="0.195312"/><stop stop-opacity="1" stop-color="rgb(47.669983%, 43.824768%, 100%)" offset="0.203125"/><stop stop-opacity="1" stop-color="rgb(47.465515%, 43.605042%, 100%)" offset="0.210938"/><stop stop-opacity="1" stop-color="rgb(47.259521%, 43.386841%, 100%)" offset="0.21875"/><stop stop-opacity="1" stop-color="rgb(47.055054%, 43.16864%, 100%)" offset="0.226562"/><stop stop-opacity="1" stop-color="rgb(46.84906%, 42.948914%, 100%)" offset="0.234375"/><stop stop-opacity="1" stop-color="rgb(46.644592%, 42.730713%, 100%)" offset="0.242188"/><stop stop-opacity="1" stop-color="rgb(46.440125%, 42.512512%, 100%)" offset="0.25"/><stop stop-opacity="1" stop-color="rgb(46.234131%, 42.294312%, 100%)" offset="0.257812"/><stop stop-opacity="1" stop-color="rgb(46.029663%, 42.074585%, 100%)" offset="0.265625"/><stop stop-opacity="1" stop-color="rgb(45.825195%, 41.856384%, 100%)" offset="0.273438"/><stop stop-opacity="1" stop-color="rgb(45.619202%, 41.638184%, 100%)" offset="0.28125"/><stop stop-opacity="1" stop-color="rgb(45.414734%, 41.419983%, 100%)" offset="0.289062"/><stop stop-opacity="1" stop-color="rgb(45.20874%, 41.200256%, 100%)" offset="0.296875"/><stop stop-opacity="1" stop-color="rgb(45.004272%, 40.982056%, 100%)" offset="0.304688"/><stop stop-opacity="1" stop-color="rgb(44.799805%, 40.763855%, 100%)" offset="0.3125"/><stop stop-opacity="1" stop-color="rgb(44.593811%, 40.544128%, 100%)" offset="0.320312"/><stop stop-opacity="1" stop-color="rgb(44.389343%, 40.325928%, 100%)" offset="0.328125"/><stop stop-opacity="1" stop-color="rgb(44.18335%, 40.107727%, 100%)" offset="0.335938"/><stop stop-opacity="1" stop-color="rgb(43.978882%, 39.889526%, 100%)" offset="0.34375"/><stop stop-opacity="1" stop-color="rgb(43.774414%, 39.6698%, 100%)" offset="0.351562"/><stop stop-opacity="1" stop-color="rgb(43.56842%, 39.451599%, 100%)" offset="0.359375"/><stop stop-opacity="1" stop-color="rgb(43.363953%, 39.233398%, 100%)" offset="0.367188"/><stop stop-opacity="1" stop-color="rgb(43.159485%, 39.015198%, 100%)" offset="0.375"/><stop stop-opacity="1" stop-color="rgb(42.953491%, 38.795471%, 100%)" offset="0.382813"/><stop stop-opacity="1" stop-color="rgb(42.749023%, 38.577271%, 100%)" offset="0.390625"/><stop stop-opacity="1" stop-color="rgb(42.54303%, 38.35907%, 100%)" offset="0.398438"/><stop stop-opacity="1" stop-color="rgb(42.338562%, 38.139343%, 100%)" offset="0.40625"/><stop stop-opacity="1" stop-color="rgb(42.134094%, 37.921143%, 100%)" offset="0.414062"/><stop stop-opacity="1" stop-color="rgb(41.928101%, 37.702942%, 100%)" offset="0.421875"/><stop stop-opacity="1" stop-color="rgb(41.723633%, 37.484741%, 100%)" offset="0.429688"/><stop stop-opacity="1" stop-color="rgb(41.517639%, 37.265015%, 100%)" offset="0.4375"/><stop stop-opacity="1" stop-color="rgb(41.313171%, 37.046814%, 100%)" offset="0.445312"/><stop stop-opacity="1" stop-color="rgb(41.108704%, 36.828613%, 100%)" offset="0.453125"/><stop stop-opacity="1" stop-color="rgb(40.90271%, 36.610413%, 100%)" offset="0.460938"/><stop stop-opacity="1" stop-color="rgb(40.644836%, 36.329651%, 100%)" offset="0.46875"/><stop stop-opacity="1" stop-color="rgb(40.332031%, 35.98938%, 100%)" offset="0.476562"/><stop stop-opacity="1" stop-color="rgb(40.0177%, 35.646057%, 100%)" offset="0.484375"/><stop stop-opacity="1" stop-color="rgb(39.704895%, 35.30426%, 100%)" offset="0.492188"/><stop stop-opacity="1" stop-color="rgb(39.39209%, 34.962463%, 100%)" offset="0.5"/><stop stop-opacity="1" stop-color="rgb(39.079285%, 34.620667%, 100%)" offset="0.507812"/><stop stop-opacity="1" stop-color="rgb(38.766479%, 34.27887%, 100%)" offset="0.515625"/><stop stop-opacity="1" stop-color="rgb(38.453674%, 33.937073%, 100%)" offset="0.523438"/><stop stop-opacity="1" stop-color="rgb(38.139343%, 33.59375%, 100%)" offset="0.53125"/><stop stop-opacity="1" stop-color="rgb(37.826538%, 33.251953%, 100%)" offset="0.539062"/><stop stop-opacity="1" stop-color="rgb(37.513733%, 32.910156%, 100%)" offset="0.546875"/><stop stop-opacity="1" stop-color="rgb(37.200928%, 32.568359%, 100%)" offset="0.554688"/><stop stop-opacity="1" stop-color="rgb(36.888123%, 32.226562%, 100%)" offset="0.5625"/><stop stop-opacity="1" stop-color="rgb(36.573792%, 31.88324%, 100%)" offset="0.570313"/><stop stop-opacity="1" stop-color="rgb(36.260986%, 31.541443%, 100%)" offset="0.578125"/><stop stop-opacity="1" stop-color="rgb(35.948181%, 31.199646%, 100%)" offset="0.585938"/><stop stop-opacity="1" stop-color="rgb(35.635376%, 30.857849%, 100%)" offset="0.59375"/><stop stop-opacity="1" stop-color="rgb(35.322571%, 30.516052%, 100%)" offset="0.601562"/><stop stop-opacity="1" stop-color="rgb(35.009766%, 30.174255%, 100%)" offset="0.609375"/><stop stop-opacity="1" stop-color="rgb(34.695435%, 29.830933%, 100%)" offset="0.617188"/><stop stop-opacity="1" stop-color="rgb(34.382629%, 29.489136%, 100%)" offset="0.625"/><stop stop-opacity="1" stop-color="rgb(34.069824%, 29.147339%, 100%)" offset="0.632812"/><stop stop-opacity="1" stop-color="rgb(33.757019%, 28.805542%, 100%)" offset="0.640625"/><stop stop-opacity="1" stop-color="rgb(33.444214%, 28.463745%, 100%)" offset="0.648438"/><stop stop-opacity="1" stop-color="rgb(33.131409%, 28.120422%, 100%)" offset="0.65625"/><stop stop-opacity="1" stop-color="rgb(32.817078%, 27.778625%, 100%)" offset="0.664063"/><stop stop-opacity="1" stop-color="rgb(32.504272%, 27.436829%, 100%)" offset="0.671875"/><stop stop-opacity="1" stop-color="rgb(32.191467%, 27.095032%, 100%)" offset="0.679688"/><stop stop-opacity="1" stop-color="rgb(31.878662%, 26.753235%, 100%)" offset="0.6875"/><stop stop-opacity="1" stop-color="rgb(31.565857%, 26.411438%, 100%)" offset="0.695312"/><stop stop-opacity="1" stop-color="rgb(31.251526%, 26.068115%, 100%)" offset="0.703125"/><stop stop-opacity="1" stop-color="rgb(30.938721%, 25.726318%, 100%)" offset="0.710938"/><stop stop-opacity="1" stop-color="rgb(30.625916%, 25.384521%, 100%)" offset="0.71875"/><stop stop-opacity="1" stop-color="rgb(30.31311%, 25.042725%, 100%)" offset="0.726562"/><stop stop-opacity="1" stop-color="rgb(30.000305%, 24.700928%, 100%)" offset="0.734375"/><stop stop-opacity="1" stop-color="rgb(29.6875%, 24.359131%, 100%)" offset="0.742188"/><stop stop-opacity="1" stop-color="rgb(29.373169%, 24.015808%, 100%)" offset="0.75"/><stop stop-opacity="1" stop-color="rgb(29.060364%, 23.674011%, 100%)" offset="0.757812"/><stop stop-opacity="1" stop-color="rgb(28.747559%, 23.332214%, 100%)" offset="0.765625"/><stop stop-opacity="1" stop-color="rgb(28.434753%, 22.990417%, 100%)" offset="0.773438"/><stop stop-opacity="1" stop-color="rgb(28.121948%, 22.648621%, 100%)" offset="0.78125"/><stop stop-opacity="1" stop-color="rgb(27.807617%, 22.305298%, 100%)" offset="0.789062"/><stop stop-opacity="1" stop-color="rgb(27.494812%, 21.963501%, 100%)" offset="0.796875"/><stop stop-opacity="1" stop-color="rgb(27.182007%, 21.621704%, 100%)" offset="0.804688"/><stop stop-opacity="1" stop-color="rgb(26.869202%, 21.279907%, 100%)" offset="0.8125"/><stop stop-opacity="1" stop-color="rgb(26.556396%, 20.93811%, 100%)" offset="0.820312"/><stop stop-opacity="1" stop-color="rgb(26.243591%, 20.596313%, 100%)" offset="0.828125"/><stop stop-opacity="1" stop-color="rgb(25.92926%, 20.252991%, 100%)" offset="0.835938"/><stop stop-opacity="1" stop-color="rgb(25.616455%, 19.911194%, 100%)" offset="0.84375"/><stop stop-opacity="1" stop-color="rgb(25.30365%, 19.569397%, 100%)" offset="0.851562"/><stop stop-opacity="1" stop-color="rgb(24.990845%, 19.2276%, 100%)" offset="0.859375"/><stop stop-opacity="1" stop-color="rgb(24.67804%, 18.885803%, 100%)" offset="0.867188"/><stop stop-opacity="1" stop-color="rgb(24.363708%, 18.54248%, 100%)" offset="0.875"/><stop stop-opacity="1" stop-color="rgb(24.050903%, 18.200684%, 100%)" offset="0.882812"/><stop stop-opacity="1" stop-color="rgb(23.738098%, 17.858887%, 100%)" offset="0.890625"/><stop stop-opacity="1" stop-color="rgb(23.425293%, 17.51709%, 100%)" offset="0.898438"/><stop stop-opacity="1" stop-color="rgb(23.112488%, 17.175293%, 100%)" offset="0.90625"/><stop stop-opacity="1" stop-color="rgb(22.799683%, 16.833496%, 100%)" offset="0.914063"/><stop stop-opacity="1" stop-color="rgb(22.485352%, 16.490173%, 100%)" offset="0.921875"/><stop stop-opacity="1" stop-color="rgb(22.172546%, 16.148376%, 100%)" offset="0.929688"/><stop stop-opacity="1" stop-color="rgb(21.859741%, 15.80658%, 100%)" offset="0.9375"/><stop stop-opacity="1" stop-color="rgb(21.546936%, 15.464783%, 100%)" offset="0.945312"/><stop stop-opacity="1" stop-color="rgb(21.234131%, 15.122986%, 100%)" offset="0.953125"/><stop stop-opacity="1" stop-color="rgb(20.9198%, 14.781189%, 100%)" offset="0.960938"/><stop stop-opacity="1" stop-color="rgb(20.606995%, 14.437866%, 100%)" offset="0.96875"/><stop stop-opacity="1" stop-color="rgb(20.294189%, 14.096069%, 100%)" offset="0.976562"/><stop stop-opacity="1" stop-color="rgb(19.981384%, 13.754272%, 100%)" offset="0.984375"/><stop stop-opacity="1" stop-color="rgb(19.668579%, 13.412476%, 100%)" offset="0.992188"/><stop stop-opacity="1" stop-color="rgb(19.355774%, 13.070679%, 100%)" offset="1"/></linearGradient></defs><g clip-path="url(#8cce922cc9)"><g clip-path="url(#cf345d5201)"><path fill="url(#15723219fd)" d="M 6.683594 4.65625 L 6.683594 22.199219 L 24.261719 22.199219 L 24.261719 4.65625 Z M 6.683594 4.65625 " fill-rule="nonzero"/></g></g><g fill="#ffffff" fill-opacity="1"><g transform="translate(26.981576, 18.508068)"><g><path d="M 10.742188 -8.628906 C 10.742188 -11.480469 8.59375 -12.464844 5.863281 -12.464844 L 1.285156 -12.464844 L 1.285156 0 L 4.296875 0 L 4.296875 -4.703125 L 5.792969 -4.703125 C 8.398438 -4.703125 10.742188 -5.738281 10.742188 -8.628906 Z M 7.730469 -8.609375 C 7.730469 -7.429688 6.691406 -7.097656 5.5625 -7.097656 L 4.296875 -7.097656 L 4.296875 -10.035156 L 5.617188 -10.035156 C 6.691406 -10.035156 7.730469 -9.808594 7.730469 -8.609375 Z M 7.730469 -8.609375 "/></g></g></g><g fill="#ffffff" fill-opacity="1"><g transform="translate(38.246106, 18.508068)"><g><path d="M 9.808594 0 L 9.808594 -5.421875 C 9.808594 -7.183594 8.980469 -9.015625 6.601562 -9.015625 C 5.386719 -9.015625 4.472656 -8.363281 4.085938 -7.660156 L 4.050781 -7.660156 L 4.050781 -13.3125 L 1.164062 -13.3125 L 1.164062 0 L 4.050781 0 L 4.050781 -4.738281 C 4.050781 -5.777344 4.613281 -6.601562 5.617188 -6.601562 C 6.65625 -6.601562 6.902344 -5.738281 6.902344 -4.753906 L 6.902344 0 Z M 9.808594 0 "/></g></g></g><g fill="#ffffff" fill-opacity="1"><g transform="translate(49.105815, 18.508068)"><g><path d="M 10.425781 -4.417969 C 10.425781 -7.289062 8.207031 -9.050781 5.546875 -9.050781 C 2.90625 -9.050781 0.6875 -7.289062 0.6875 -4.417969 C 0.6875 -1.550781 2.90625 0.28125 5.546875 0.28125 C 8.207031 0.28125 10.425781 -1.550781 10.425781 -4.417969 Z M 7.640625 -4.417969 C 7.640625 -3.292969 6.921875 -2.148438 5.5625 -2.148438 C 4.207031 -2.148438 3.488281 -3.292969 3.488281 -4.417969 C 3.488281 -5.546875 4.191406 -6.65625 5.546875 -6.65625 C 6.902344 -6.65625 7.640625 -5.546875 7.640625 -4.417969 Z M 7.640625 -4.417969 "/></g></g></g><g fill="#ffffff" fill-opacity="1"><g transform="translate(60.229538, 18.508068)"><g><path d="M 6.320312 -6.601562 L 6.320312 -8.769531 L 4.261719 -8.769531 L 4.261719 -11.074219 L 1.425781 -11.074219 L 1.425781 -8.769531 L 0.0351562 -8.769531 L 0.0351562 -6.601562 L 1.445312 -6.601562 L 1.445312 -2.90625 C 1.445312 -1.039062 2.21875 0.210938 4.558594 0.210938 C 5.175781 0.210938 5.847656 0.0898438 6.234375 -0.0546875 L 6.199219 -2.164062 C 5.988281 -2.078125 5.632812 -2.023438 5.351562 -2.023438 C 4.523438 -2.023438 4.261719 -2.449219 4.261719 -3.257812 L 4.261719 -6.601562 Z M 6.320312 -6.601562 "/></g></g></g><g fill="#ffffff" fill-opacity="1"><g transform="translate(66.777047, 18.508068)"><g><path d="M 10.425781 -4.417969 C 10.425781 -7.289062 8.207031 -9.050781 5.546875 -9.050781 C 2.90625 -9.050781 0.6875 -7.289062 0.6875 -4.417969 C 0.6875 -1.550781 2.90625 0.28125 5.546875 0.28125 C 8.207031 0.28125 10.425781 -1.550781 10.425781 -4.417969 Z M 7.640625 -4.417969 C 7.640625 -3.292969 6.921875 -2.148438 5.5625 -2.148438 C 4.207031 -2.148438 3.488281 -3.292969 3.488281 -4.417969 C 3.488281 -5.546875 4.191406 -6.65625 5.546875 -6.65625 C 6.902344 -6.65625 7.640625 -5.546875 7.640625 -4.417969 Z M 7.640625 -4.417969 "/></g></g></g><g fill="#ffffff" fill-opacity="1"><g transform="translate(77.90077, 18.508068)"><g><path d="M 10.425781 -0.828125 L 10.425781 -8.769531 L 7.695312 -8.769531 L 7.695312 -7.640625 L 7.660156 -7.640625 C 7.042969 -8.574219 5.953125 -9.015625 4.859375 -9.015625 C 2.21875 -9.015625 0.6875 -6.847656 0.6875 -4.417969 C 0.6875 -1.988281 2.21875 0.0898438 4.878906 0.0898438 C 6.039062 0.0898438 6.992188 -0.371094 7.535156 -1.074219 L 7.589844 -1.074219 L 7.589844 -0.546875 C 7.589844 0.914062 6.796875 1.902344 5.105469 1.902344 C 4.121094 1.902344 3.046875 1.53125 2.199219 0.792969 L 0.757812 2.851562 C 1.9375 3.734375 3.734375 4.226562 5.265625 4.226562 C 8.382812 4.226562 10.425781 2.605469 10.425781 -0.828125 Z M 7.675781 -4.4375 C 7.675781 -3.238281 6.867188 -2.199219 5.546875 -2.199219 C 4.242188 -2.199219 3.488281 -3.273438 3.488281 -4.4375 C 3.488281 -5.652344 4.242188 -6.65625 5.546875 -6.65625 C 6.847656 -6.65625 7.675781 -5.632812 7.675781 -4.4375 Z M 7.675781 -4.4375 "/></g></g></g><g fill="#ffffff" fill-opacity="1"><g transform="translate(89.482121, 18.508068)"><g><path d="M 6.9375 -8.945312 C 6.796875 -8.996094 6.550781 -9.015625 6.320312 -9.015625 C 5.246094 -9.015625 4.382812 -8.382812 3.945312 -7.5 L 3.910156 -7.5 L 3.910156 -8.769531 L 1.125 -8.769531 L 1.125 0 L 4.015625 0 L 4.015625 -4.507812 C 4.015625 -5.230469 4.523438 -6.496094 6.074219 -6.496094 C 6.304688 -6.496094 6.550781 -6.480469 6.8125 -6.410156 Z M 6.9375 -8.945312 "/></g></g></g><g fill="#ffffff" fill-opacity="1"><g transform="translate(96.452049, 18.508068)"><g><path d="M 6.304688 -3.523438 C 6.304688 -2.429688 5.652344 -1.726562 4.488281 -1.726562 C 3.910156 -1.726562 3.238281 -1.953125 3.238281 -2.625 C 3.238281 -3.664062 4.667969 -3.820312 5.933594 -3.820312 L 6.304688 -3.820312 Z M 2.464844 -6.003906 C 2.992188 -6.496094 3.804688 -6.902344 4.632812 -6.902344 C 5.527344 -6.902344 6.214844 -6.496094 6.214844 -5.632812 L 6.214844 -5.492188 C 3.664062 -5.492188 0.582031 -5.070312 0.582031 -2.535156 C 0.582031 -0.476562 2.378906 0.210938 3.769531 0.210938 C 4.808594 0.210938 5.8125 -0.210938 6.25 -0.933594 L 6.304688 -0.933594 L 6.304688 0 L 8.945312 0 L 8.945312 -4.417969 C 8.945312 -7.605469 7.851562 -9.050781 4.914062 -9.050781 C 3.488281 -9.050781 2.023438 -8.539062 1.003906 -7.570312 Z M 2.464844 -6.003906 "/></g></g></g><g fill="#ffffff" fill-opacity="1"><g transform="translate(106.414123, 18.508068)"><g><path d="M 15.214844 0 L 15.214844 -5.421875 C 15.214844 -7.078125 14.402344 -9.015625 12.027344 -9.015625 C 10.722656 -9.015625 9.808594 -8.433594 9.226562 -7.519531 C 8.734375 -8.46875 7.851562 -9.015625 6.585938 -9.015625 C 5.265625 -9.015625 4.367188 -8.292969 3.960938 -7.554688 L 3.925781 -7.554688 L 3.925781 -8.769531 L 1.125 -8.769531 L 1.125 0 L 4.03125 0 L 4.03125 -4.753906 C 4.03125 -5.8125 4.558594 -6.636719 5.476562 -6.636719 C 6.339844 -6.636719 6.726562 -6.003906 6.726562 -5 L 6.726562 0 L 9.613281 0 L 9.613281 -4.738281 C 9.613281 -5.722656 10.089844 -6.636719 11.074219 -6.636719 C 12.097656 -6.636719 12.324219 -5.792969 12.324219 -4.789062 L 12.324219 0 Z M 15.214844 0 "/></g></g></g></svg>